# xmcd
#
# Track frame offsets:
#	150
#	34631
#	66126
#	105644
#	131648
#	179399
#
# Disc length: 2691 seconds
#
# Revision: 0
# Processed by: cddbd v1.5.2PL0 Copyright (c) Steve Scherf et al.
# Submitted via: audiograbber 1.83.01
#
DISCID=4c0a8106
DTITLE=Grateful Dead - 94-07-03 Shoreline Amphitheatre, Mountain View CA
DYEAR=1900
DGENRE=
TTITLE0=Here Comes Sunshine
TTITLE1=It's All Over Now
TTITLE2=Althea
TTITLE3=When I Paint My Masterpiece
TTITLE4=Birdsong
TTITLE5=Promised Land
EXTD=
EXTT0=
EXTT1=
EXTT2=
EXTT3=
EXTT4=
EXTT5=
PLAYORDER=
